<mxfile host="app.diagrams.net" modified="2021-04-16T19:45:57.104Z" agent="5.0 (Windows NT 10.0; Win64; x64) AppleWebKit/537.36 (KHTML, like Gecko) Chrome/90.0.4430.72 Safari/537.36" etag="zZ-7agadvvazzpi5IbVS" version="14.5.7" type="github">
  <diagram name="Page-1" id="13e1069c-82ec-6db2-03f1-153e76fe0fe0">
    <mxGraphModel dx="1662" dy="737" grid="1" gridSize="10" guides="1" tooltips="1" connect="1" arrows="1" fold="1" page="1" pageScale="1" pageWidth="1100" pageHeight="850" background="#ffffff" math="0" shadow="0">
      <root>
        <mxCell id="0" />
        <mxCell id="1" parent="0" />
        <mxCell id="obODThyj6J91PLrF7VNU-1" value="Vendedor" style="shape=umlLifeline;participant=umlActor;perimeter=lifelinePerimeter;whiteSpace=wrap;html=1;container=1;collapsible=0;recursiveResize=0;verticalAlign=top;spacingTop=36;outlineConnect=0;" vertex="1" parent="1">
          <mxGeometry x="540" y="210" width="30" height="860" as="geometry" />
        </mxCell>
        <mxCell id="obODThyj6J91PLrF7VNU-3" value="" style="html=1;points=[];perimeter=orthogonalPerimeter;" vertex="1" parent="obODThyj6J91PLrF7VNU-1">
          <mxGeometry x="10" y="110" width="10" height="670" as="geometry" />
        </mxCell>
        <mxCell id="obODThyj6J91PLrF7VNU-5" value="Control publicaciÃ³n de productos" style="shape=umlLifeline;participant=umlControl;perimeter=lifelinePerimeter;whiteSpace=wrap;html=1;container=1;collapsible=0;recursiveResize=0;verticalAlign=top;spacingTop=36;outlineConnect=0;" vertex="1" parent="1">
          <mxGeometry x="760" y="210" width="40" height="850" as="geometry" />
        </mxCell>
        <mxCell id="obODThyj6J91PLrF7VNU-6" value="" style="html=1;points=[];perimeter=orthogonalPerimeter;" vertex="1" parent="obODThyj6J91PLrF7VNU-5">
          <mxGeometry x="15" y="110" width="10" height="630" as="geometry" />
        </mxCell>
        <mxCell id="obODThyj6J91PLrF7VNU-11" value="Procesar datos" style="edgeStyle=orthogonalEdgeStyle;html=1;align=left;spacingLeft=2;endArrow=block;rounded=0;exitX=1.3;exitY=0.148;exitDx=0;exitDy=0;exitPerimeter=0;entryX=1;entryY=0.184;entryDx=0;entryDy=0;entryPerimeter=0;" edge="1" target="obODThyj6J91PLrF7VNU-6" parent="obODThyj6J91PLrF7VNU-5" source="obODThyj6J91PLrF7VNU-6">
          <mxGeometry relative="1" as="geometry">
            <mxPoint x="20" y="280" as="sourcePoint" />
            <Array as="points">
              <mxPoint x="50" y="203" />
              <mxPoint x="50" y="226" />
            </Array>
            <mxPoint x="20" y="270" as="targetPoint" />
          </mxGeometry>
        </mxCell>
        <mxCell id="obODThyj6J91PLrF7VNU-7" value="Publicar nuevo producto" style="html=1;verticalAlign=bottom;endArrow=block;exitX=1.3;exitY=0.037;exitDx=0;exitDy=0;exitPerimeter=0;" edge="1" parent="1" source="obODThyj6J91PLrF7VNU-3" target="obODThyj6J91PLrF7VNU-5">
          <mxGeometry width="80" relative="1" as="geometry">
            <mxPoint x="810" y="410" as="sourcePoint" />
            <mxPoint x="890" y="410" as="targetPoint" />
          </mxGeometry>
        </mxCell>
        <mxCell id="obODThyj6J91PLrF7VNU-8" value="Solicitar datos asociados al producto" style="html=1;verticalAlign=bottom;endArrow=block;entryX=1.4;entryY=0.113;entryDx=0;entryDy=0;entryPerimeter=0;" edge="1" parent="1" source="obODThyj6J91PLrF7VNU-5" target="obODThyj6J91PLrF7VNU-3">
          <mxGeometry width="80" relative="1" as="geometry">
            <mxPoint x="700" y="410" as="sourcePoint" />
            <mxPoint x="890" y="410" as="targetPoint" />
          </mxGeometry>
        </mxCell>
        <mxCell id="obODThyj6J91PLrF7VNU-9" value="Aportar datos" style="html=1;verticalAlign=bottom;endArrow=block;exitX=1.4;exitY=0.258;exitDx=0;exitDy=0;exitPerimeter=0;" edge="1" parent="1" source="obODThyj6J91PLrF7VNU-3" target="obODThyj6J91PLrF7VNU-5">
          <mxGeometry width="80" relative="1" as="geometry">
            <mxPoint x="810" y="410" as="sourcePoint" />
            <mxPoint x="890" y="410" as="targetPoint" />
          </mxGeometry>
        </mxCell>
        <mxCell id="obODThyj6J91PLrF7VNU-12" value="Catalogo" style="shape=umlLifeline;participant=umlEntity;perimeter=lifelinePerimeter;whiteSpace=wrap;html=1;container=1;collapsible=0;recursiveResize=0;verticalAlign=top;spacingTop=36;outlineConnect=0;" vertex="1" parent="1">
          <mxGeometry x="980" y="210" width="40" height="860" as="geometry" />
        </mxCell>
        <mxCell id="obODThyj6J91PLrF7VNU-13" value="" style="html=1;points=[];perimeter=orthogonalPerimeter;" vertex="1" parent="obODThyj6J91PLrF7VNU-12">
          <mxGeometry x="15" y="300" width="10" height="70" as="geometry" />
        </mxCell>
        <mxCell id="obODThyj6J91PLrF7VNU-14" value="alt" style="shape=umlFrame;whiteSpace=wrap;html=1;" vertex="1" parent="1">
          <mxGeometry x="310" y="510" width="740" height="380" as="geometry" />
        </mxCell>
        <mxCell id="obODThyj6J91PLrF7VNU-15" value="[Datos insertados correctamente]" style="text;html=1;strokeColor=none;fillColor=none;align=center;verticalAlign=middle;whiteSpace=wrap;rounded=0;" vertex="1" parent="1">
          <mxGeometry x="370" y="510" width="180" height="20" as="geometry" />
        </mxCell>
        <mxCell id="obODThyj6J91PLrF7VNU-16" value="Publicar nuevo producto" style="html=1;verticalAlign=bottom;endArrow=block;exitX=0.649;exitY=0.1;exitDx=0;exitDy=0;exitPerimeter=0;entryX=0.919;entryY=0.1;entryDx=0;entryDy=0;entryPerimeter=0;" edge="1" parent="1" source="obODThyj6J91PLrF7VNU-14" target="obODThyj6J91PLrF7VNU-14">
          <mxGeometry width="80" relative="1" as="geometry">
            <mxPoint x="930" y="650" as="sourcePoint" />
            <mxPoint x="1010" y="650" as="targetPoint" />
          </mxGeometry>
        </mxCell>
        <mxCell id="obODThyj6J91PLrF7VNU-17" value="Notificar exito" style="html=1;verticalAlign=bottom;endArrow=block;exitX=0.635;exitY=0.237;exitDx=0;exitDy=0;exitPerimeter=0;" edge="1" parent="1" source="obODThyj6J91PLrF7VNU-14">
          <mxGeometry width="80" relative="1" as="geometry">
            <mxPoint x="930" y="650" as="sourcePoint" />
            <mxPoint x="560" y="600" as="targetPoint" />
          </mxGeometry>
        </mxCell>
        <mxCell id="obODThyj6J91PLrF7VNU-18" value="" style="endArrow=none;dashed=1;html=1;exitX=-0.001;exitY=0.555;exitDx=0;exitDy=0;exitPerimeter=0;entryX=1.007;entryY=0.547;entryDx=0;entryDy=0;entryPerimeter=0;" edge="1" parent="1" source="obODThyj6J91PLrF7VNU-14" target="obODThyj6J91PLrF7VNU-14">
          <mxGeometry width="50" height="50" relative="1" as="geometry">
            <mxPoint x="940" y="640" as="sourcePoint" />
            <mxPoint x="990" y="590" as="targetPoint" />
          </mxGeometry>
        </mxCell>
        <mxCell id="obODThyj6J91PLrF7VNU-19" value="[else]" style="text;html=1;strokeColor=none;fillColor=none;align=center;verticalAlign=middle;whiteSpace=wrap;rounded=0;" vertex="1" parent="1">
          <mxGeometry x="310" y="720" width="40" height="20" as="geometry" />
        </mxCell>
      </root>
    </mxGraphModel>
  </diagram>
</mxfile>
